<?xml version="1.0" ?><svg viewBox="0 0 256 256" xmlns="http://www.w3.org/2000/svg"><rect fill="none" height="256" width="256"/><path d="M176,80h42.6a7.9,7.9,0,0,1,7.4,5l14,35" fill="none" stroke="#000" stroke-linecap="round" stroke-linejoin="round" stroke-width="12"/><line fill="none" stroke="#000" stroke-linecap="round" stroke-linejoin="round" stroke-width="12" x1="16" x2="176" y1="144" y2="144"/><circle cx="188" cy="192" fill="none" r="24" stroke="#000" stroke-linecap="round" stroke-linejoin="round" stroke-width="12"/><circle cx="68" cy="192" fill="none" r="24" stroke="#000" stroke-linecap="round" stroke-linejoin="round" stroke-width="12"/><line fill="none" stroke="#000" stroke-linecap="round" stroke-linejoin="round" stroke-width="12" x1="164" x2="92" y1="192" y2="192"/><path d="M44,192H24a8,8,0,0,1-8-8V72a8,8,0,0,1,8-8H176V171.2" fill="none" stroke="#000" stroke-linecap="round" stroke-linejoin="round" stroke-width="12"/><path d="M176,120h64v64a8,8,0,0,1-8,8H212" fill="none" stroke="#000" stroke-linecap="round" stroke-linejoin="round" stroke-width="12"/></svg>